<?xml version="1.0" encoding="UTF-8" standalone="no"?>
<svg width="20px" height="20px" viewBox="0 0 20 20" version="1.1" xmlns="http://www.w3.org/2000/svg" xmlns:xlink="http://www.w3.org/1999/xlink" xmlns:sketch="http://www.bohemiancoding.com/sketch/ns">
    <!-- Generator: Sketch Beta 3.3 (11920) - http://www.bohemiancoding.com/sketch -->
    <title>icon_profile</title>
    <desc>Created with Sketch Beta.</desc>
    <defs></defs>
    <g id="Page-1" stroke="none" stroke-width="1" fill="none" fill-rule="evenodd" sketch:type="MSPage">
        <g id="icon_profile" sketch:type="MSLayerGroup" fill="#F1F1F1">
            <path d="M0,2.22222222 L0,17.7777778 C0,19 1,20 2.22222222,20 L17.7777778,20 C19,20 20,19 20,17.7777778 L20,2.22222222 C20,1 19,0 17.7777778,0 L2.22222222,0 C1,0 0,1 0,2.22222222 L0,2.22222222 Z M13.3333333,6.66666667 C13.3333333,8.55555556 11.8888889,10 10,10 C8.11111111,10 6.66666667,8.55555556 6.66666667,6.66666667 C6.66666667,4.77777778 8.11111111,3.33333333 10,3.33333333 C11.8888889,3.33333333 13.3333333,4.77777778 13.3333333,6.66666667 L13.3333333,6.66666667 Z M3.33333333,15.5555556 C3.33333333,13.3333333 7.77777778,12.1111111 10,12.1111111 C12.2222222,12.1111111 16.6666667,13.3333333 16.6666667,15.5555556 L16.6666667,16.6666667 L3.33333333,16.6666667 L3.33333333,15.5555556 L3.33333333,15.5555556 Z" id="Shape" sketch:type="MSShapeGroup"></path>
        </g>
    </g>
</svg>