<?xml version="1.0" encoding="UTF-8" standalone="no"?>
<svg width="20px" height="20px" viewBox="0 0 20 20" version="1.1" xmlns="http://www.w3.org/2000/svg" xmlns:xlink="http://www.w3.org/1999/xlink" xmlns:sketch="http://www.bohemiancoding.com/sketch/ns">
    <!-- Generator: Sketch Beta 3.3 (11920) - http://www.bohemiancoding.com/sketch -->
    <title>icon_exit</title>
    <desc>Created with Sketch Beta.</desc>
    <defs></defs>
    <g id="Page-1" stroke="none" stroke-width="1" fill="none" fill-rule="evenodd" sketch:type="MSPage">
        <g id="exit-to-app" sketch:type="MSLayerGroup" fill="#F1F1F1">
            <path d="M7.88888889,14 L9.44444444,15.5555556 L15,10 L9.44444444,4.44444444 L7.88888889,6 L10.7777778,8.88888889 L0,8.88888889 L0,11.1111111 L10.7777778,11.1111111 L7.88888889,14 L7.88888889,14 Z M17.7777778,0 L2.22222222,0 C1,0 0,1 0,2.22222222 L0,6.66666667 L2.22222222,6.66666667 L2.22222222,2.22222222 L17.7777778,2.22222222 L17.7777778,17.7777778 L2.22222222,17.7777778 L2.22222222,13.3333333 L0,13.3333333 L0,17.7777778 C0,19 1,20 2.22222222,20 L17.7777778,20 C19,20 20,19 20,17.7777778 L20,2.22222222 C20,1 19,0 17.7777778,0 L17.7777778,0 Z" id="icon_exit" sketch:type="MSShapeGroup"></path>
        </g>
    </g>
</svg>