<?xml version="1.0" encoding="UTF-8" standalone="no"?>
<svg width="20px" height="20px" viewBox="0 0 20 20" version="1.1" xmlns="http://www.w3.org/2000/svg" xmlns:xlink="http://www.w3.org/1999/xlink" xmlns:sketch="http://www.bohemiancoding.com/sketch/ns">
    <!-- Generator: Sketch Beta 3.3 (11920) - http://www.bohemiancoding.com/sketch -->
    <title>icon_bell</title>
    <desc>Created with Sketch Beta.</desc>
    <defs></defs>
    <g id="Page-1" stroke="none" stroke-width="1" fill="none" fill-rule="evenodd" sketch:type="MSPage">
        <g id="icon_bell" sketch:type="MSLayerGroup" fill="#F1F1F1">
            <g id="Page-1" sketch:type="MSShapeGroup">
                <g id="icon_bell">
                    <g id="notifications" transform="translate(0.555556, 0.000000)">
                        <path d="M9.44444444,20 C10.6666667,20 11.6666667,19.1 11.6666667,18 L7.22222222,18 C7.22222222,19.1 8.22222222,20 9.44444444,20 L9.44444444,20 L9.44444444,20 Z M16.6666667,14 L16.6666667,8.5 C16.6666667,5.4 14.3333333,2.9 11.1111111,2.2 L11.1111111,1.5 C11.1111111,0.7 10.3333333,0 9.44444444,0 C8.55555556,0 7.77777778,0.7 7.77777778,1.5 L7.77777778,2.2 C4.55555556,2.9 2.22222222,5.4 2.22222222,8.5 L2.22222222,14 L0,16 L0,17 L18.8888889,17 L18.8888889,16 L16.6666667,14 L16.6666667,14 Z" id="Shape"></path>
                    </g>
                </g>
            </g>
        </g>
    </g>
</svg>