<?xml version="1.0" encoding="UTF-8" standalone="no"?>
<svg width="20px" height="20px" viewBox="0 0 20 20" version="1.1" xmlns="http://www.w3.org/2000/svg" xmlns:xlink="http://www.w3.org/1999/xlink" xmlns:sketch="http://www.bohemiancoding.com/sketch/ns">
    <!-- Generator: Sketch Beta 3.3 (11920) - http://www.bohemiancoding.com/sketch -->
    <title>password</title>
    <desc>Created with Sketch Beta.</desc>
    <defs></defs>
    <g id="Page-1" stroke="none" stroke-width="1" fill="none" fill-rule="evenodd" sketch:type="MSPage">
        <g id="password" sketch:type="MSArtboardGroup" fill="#727272">
            <g id="lock" sketch:type="MSLayerGroup" transform="translate(2.000000, 0.000000)">
                <path d="M14,6.66666667 L13,6.66666667 L13,4.76190476 C13,2.0952381 10.8,0 8,0 C5.2,0 3,2.0952381 3,4.76190476 L3,6.66666667 L2,6.66666667 C0.9,6.66666667 0,7.52380952 0,8.57142857 L0,18.0952381 C0,19.1428571 0.9,20 2,20 L14,20 C15.1,20 16,19.1428571 16,18.0952381 L16,8.57142857 C16,7.52380952 15.1,6.66666667 14,6.66666667 L14,6.66666667 Z M8,15.2380952 C6.9,15.2380952 6,14.3809524 6,13.3333333 C6,12.2857143 6.9,11.4285714 8,11.4285714 C9.1,11.4285714 10,12.2857143 10,13.3333333 C10,14.3809524 9.1,15.2380952 8,15.2380952 L8,15.2380952 Z M11.1,6.66666667 L4.9,6.66666667 L4.9,4.76190476 C4.9,3.14285714 6.3,1.80952381 8,1.80952381 C9.7,1.80952381 11.1,3.14285714 11.1,4.76190476 L11.1,6.66666667 L11.1,6.66666667 Z" id="Shape" sketch:type="MSShapeGroup"></path>
            </g>
        </g>
    </g>
</svg>