<?xml version="1.0" encoding="UTF-8" standalone="no"?>
<svg width="20px" height="20px" viewBox="0 0 20 20" version="1.1" xmlns="http://www.w3.org/2000/svg" xmlns:xlink="http://www.w3.org/1999/xlink" xmlns:sketch="http://www.bohemiancoding.com/sketch/ns">
    <!-- Generator: Sketch Beta 3.3 (11970) - http://www.bohemiancoding.com/sketch -->
    <title>icon_list</title>
    <desc>Created with Sketch Beta.</desc>
    <defs></defs>
    <g id="Page-1" stroke="none" stroke-width="1" fill="none" fill-rule="evenodd" sketch:type="MSPage">
        <g id="icon_list" sketch:type="MSArtboardGroup" fill="#727272">
            <g id="drive-document-6" sketch:type="MSLayerGroup">
                <path d="M17.7777778,0 L2.22222222,0 C1,0 0,1 0,2.22222222 L0,17.7777778 C0,19 1,20 2.22222222,20 L17.7777778,20 C19,20 20,19 20,17.7777778 L20,2.22222222 C20,1 19,0 17.7777778,0 L17.7777778,0 Z M15.5555556,6.66666667 L4.44444444,6.66666667 L4.44444444,4.44444444 L15.5555556,4.44444444 L15.5555556,6.66666667 L15.5555556,6.66666667 Z M15.5555556,11.1111111 L4.44444444,11.1111111 L4.44444444,8.88888889 L15.5555556,8.88888889 L15.5555556,11.1111111 L15.5555556,11.1111111 Z M12.2222222,15.5555556 L4.44444444,15.5555556 L4.44444444,13.3333333 L12.2222222,13.3333333 L12.2222222,15.5555556 L12.2222222,15.5555556 Z" id="Shape" sketch:type="MSShapeGroup"></path>
            </g>
        </g>
    </g>
</svg>