<?xml version="1.0" encoding="utf-8"?>
<!-- Generator: Adobe Illustrator 16.0.3, SVG Export Plug-In . SVG Version: 6.00 Build 0)  -->
<!DOCTYPE svg PUBLIC "-//W3C//DTD SVG 1.1//EN" "http://www.w3.org/Graphics/SVG/1.1/DTD/svg11.dtd">
<svg version="1.1" id="Layer_1" xmlns:sketch="http://www.bohemiancoding.com/sketch/ns"
	 xmlns="http://www.w3.org/2000/svg" xmlns:xlink="http://www.w3.org/1999/xlink" x="0px" y="0px" width="20px" height="20px"
	 viewBox="0 0 20 20" enable-background="new 0 0 20 20" xml:space="preserve">
<title>icon_shop</title>
<desc>Created with Sketch Beta.</desc>
<g id="Page-1" sketch:type="MSPage">
	<g id="icon_shop" sketch:type="MSArtboardGroup">
		<g id="domain-6" transform="translate(0.000000, 1.000000)" sketch:type="MSLayerGroup">
			<path id="Shape" sketch:type="MSShapeGroup" fill="#DA453D" d="M10,4V0H0v18h20V4H10L10,4z M4,16H2v-2h2V16L4,16z M4,12H2v-2h2
				V12L4,12z M4,8H2V6h2V8L4,8z M4,4H2V2h2V4L4,4z M8,16H6v-2h2V16L8,16z M8,12H6v-2h2V12L8,12z M8,8H6V6h2V8L8,8z M8,4H6V2h2V4L8,4
				z M18,16h-8v-2h2v-2h-2v-2h2V8h-2V6h8V16L18,16z M16,8h-2v2h2V8L16,8z M16,12h-2v2h2V12L16,12z"/>
		</g>
	</g>
</g>
</svg>
