<?xml version="1.0" encoding="utf-8"?>
<!-- Generator: Adobe Illustrator 16.0.3, SVG Export Plug-In . SVG Version: 6.00 Build 0)  -->
<!DOCTYPE svg PUBLIC "-//W3C//DTD SVG 1.1//EN" "http://www.w3.org/Graphics/SVG/1.1/DTD/svg11.dtd">
<svg version="1.1" id="Layer_1" xmlns:sketch="http://www.bohemiancoding.com/sketch/ns"
	 xmlns="http://www.w3.org/2000/svg" xmlns:xlink="http://www.w3.org/1999/xlink" x="0px" y="0px" width="20px" height="20px"
	 viewBox="0 0 20 20" enable-background="new 0 0 20 20" xml:space="preserve">
<title>icon_anut copy</title>
<desc>Created with Sketch Beta.</desc>
<g id="Page-1" sketch:type="MSPage">
	<g id="icon_anut-copy" sketch:type="MSArtboardGroup">
		<g id="people-8" transform="translate(-1.000000, 3.000000)" sketch:type="MSLayerGroup">
			<path id="Shape" sketch:type="MSShapeGroup" fill="#DA453D" d="M15,6c1.7,0,3-1.3,3-3s-1.3-3-3-3s-3,1.3-3,3S13.3,6,15,6L15,6z
				 M7,6c1.7,0,3-1.3,3-3S8.7,0,7,0S4,1.3,4,3S5.3,6,7,6L7,6z M7,8c-2.3,0-7,1.2-7,3.5V14h14v-2.5C14,9.2,9.3,8,7,8L7,8z M15,8
				c-0.3,0-0.6,0-1,0.1c1.2,0.801,2,2,2,3.4V14h6v-2.5C22,9.2,17.3,8,15,8L15,8z"/>
		</g>
	</g>
</g>
</svg>
