<?xml version="1.0" encoding="utf-8"?>
<!-- Generator: Adobe Illustrator 16.0.3, SVG Export Plug-In . SVG Version: 6.00 Build 0)  -->
<!DOCTYPE svg PUBLIC "-//W3C//DTD SVG 1.1//EN" "http://www.w3.org/Graphics/SVG/1.1/DTD/svg11.dtd">
<svg version="1.1" id="Layer_1" xmlns:sketch="http://www.bohemiancoding.com/sketch/ns"
	 xmlns="http://www.w3.org/2000/svg" xmlns:xlink="http://www.w3.org/1999/xlink" x="0px" y="0px" width="20px" height="20px"
	 viewBox="0 0 20 20" enable-background="new 0 0 20 20" xml:space="preserve">
<title>icon_list</title>
<desc>Created with Sketch Beta.</desc>
<g id="Page-1" sketch:type="MSPage">
	<g id="icon_list" sketch:type="MSArtboardGroup">
		<g id="drive-document-6" sketch:type="MSLayerGroup">
			<path id="Shape" sketch:type="MSShapeGroup" fill="#DA453D" d="M17.777,0H2.222C1,0,0,1,0,2.222v15.555C0,19,1,20,2.222,20
				h15.555C19,20,20,19,20,17.777V2.222C20,1,19,0,17.777,0L17.777,0z M15.556,6.667H4.444V4.444h11.111V6.667L15.556,6.667z
				 M15.556,11.111H4.444V8.889h11.111V11.111L15.556,11.111z M12.223,15.556H4.444v-2.222h7.778V15.556L12.223,15.556z"/>
		</g>
	</g>
</g>
</svg>
