<?xml version="1.0" encoding="UTF-8" standalone="no"?>
<svg width="167px" height="54px" viewBox="0 0 167 54" version="1.1" xmlns="http://www.w3.org/2000/svg" xmlns:xlink="http://www.w3.org/1999/xlink" xmlns:sketch="http://www.bohemiancoding.com/sketch/ns">
    <!-- Generator: Sketch Beta 3.3 (11920) - http://www.bohemiancoding.com/sketch -->
    <title>Artboard 3</title>
    <desc>Created with Sketch Beta.</desc>
    <defs></defs>
    <g id="Page-1" stroke="none" stroke-width="1" fill="none" fill-rule="evenodd" sketch:type="MSPage">
        <g id="Artboard-3" sketch:type="MSArtboardGroup">
            <path d="M71.7036071,23.6889684 C72.0353577,23.6889684 73.4626539,23.6889685 73.4626539,23.6889685 L73.4626539,21.3992679 C72.8907471,21.4946721 60.6510752,21.4946721 60.0315096,21.3992679 L60.0315097,23.6889685 C60.0315097,23.6889685 61.0518433,23.6889684 61.9335329,23.6889684 L64.4356251,23.6889684 C63.8637183,24.0467341 63.053517,24.4283508 62.2909746,24.7384144 C60.4799365,25.4062437 57.2243225,26.3125834 57.2243225,26.3125834 L57.4129564,26.7710305 C57.4129564,26.7710305 57.7734411,27.3875959 58.1450059,27.8867525 C60.9568809,27.1473701 62.4339513,26.8611575 64.5071134,25.8594136 C64.7692374,26.1933282 64.9837024,26.5033918 65.3173147,27.0281148 C63.1250053,28.4830287 59.6459057,29.8186873 56.1429767,30.5342187 C56.7148835,31.225899 57.0723252,31.535963 57.5012553,32.3468985 C60.6467426,31.4167077 64.2449895,30.0333467 66.1513454,28.7215391 C66.3896399,29.3655174 66.4849577,29.6517299 66.6279344,30.2718571 C64.7930668,31.5836647 64.7930668,31.5836647 63.3394704,32.3230471 C60.9803549,33.4678974 58.2399682,34.4696413 56,34.9705133 C56.6195657,35.6860447 56.8311656,36.0184793 57.3792429,36.9963722 C58.6793271,36.562618 62.5989591,35.1927802 62.5989591,35.1927802 C62.5989591,35.1927802 62.6328489,37.4946479 62.6368273,37.7372343 L66.1513455,37.7372343 C67.5811125,37.7372343 68.0100425,37.6895326 68.5342903,37.2840648 C69.2491738,36.7354907 69.630445,35.6860447 69.630445,34.1595777 C69.630445,32.9193233 69.4636389,31.5359626 69.1776855,30.2480061 C69.5351272,30.0333467 69.7019334,29.9379425 70.0832046,29.699432 C70.5597935,30.6534739 74.3897838,35.4204114 76.0405669,36.7354907 L77.5525525,34.715152 C77.5525525,34.715152 76.0789214,33.2018681 74.6899087,31.6157933 C73.3435382,30.0784102 72.08157,28.4688236 72.01339,28.3399224 C72.5852967,27.9106036 73.0142268,27.5766889 73.8959164,26.7896044 C74.0557641,26.6533144 74.3420081,26.3125834 74.3420081,26.3125834 L72.3393382,24.7145633 C72.3393382,24.7145633 71.6797777,25.4777968 70.7027702,26.3125835 C69.9878868,26.8850086 69.630445,27.1473701 68.4151431,27.8867525 C67.8432363,26.5272429 67.4143062,25.7640094 66.5087872,24.7145634 C66.9615467,24.4283508 67.3904768,24.1182872 67.9385541,23.6889684 L71.7036071,23.6889684 Z M67.033035,32.6569618 C67.0568645,32.9431743 67.0806939,33.1578338 67.0806939,33.4201953 C67.0806939,35.1136196 66.7709111,35.5190873 65.4602914,35.5190873 C64.697749,35.5190873 63.8398888,35.4236832 62.576928,35.1851727 C64.697749,34.1595777 65.9845393,33.4201953 67.033035,32.6569618 L67.033035,32.6569618 Z M59.0978284,17.7977599 C58.3118053,17.7977599 56.6864044,17.8211456 56.4527595,17.7977599 C56.5004184,18.2986319 56.5242479,22.4010119 56.4527595,22.9257349 L59.0501695,22.9257349 L59.0501695,20.0874604 L74.6107999,20.0874604 L74.6107999,22.9257349 L77.1843805,22.9257349 C77.1128921,22.4010119 77.1843798,18.4517323 77.1843798,17.7977599 C76.124613,17.7977599 75.6831251,17.7977599 74.5393116,17.7977599 L67.8908951,17.7977599 C67.8293043,17.6348368 67.8908951,16.0658883 67.8908951,16.0658883 L65.1743376,16.0658883 C65.1743376,16.0658883 65.1383863,17.7149961 65.174338,17.7977599 L59.0978284,17.7977599 Z M101.633396,19.673763 C101.633396,19.673763 100.322776,19.7058436 99.27428,19.7058436 L94.6275374,19.7058436 C94.9849791,18.2747808 95.1994441,17.3922921 95.2709325,17.0106754 C95.3900797,16.4859524 95.4139092,16.3905482 95.5330564,16.0327825 L92.9034148,16.0327825 C92.8795854,16.7721649 92.5543753,17.7500578 92.220763,19.1572696 C91.5773679,21.7570336 90.790996,23.5935642 89.5518647,25.4062437 L89.5518646,24.3567975 C89.5518646,24.3567975 88.7416634,24.3567977 87.7884854,24.3567977 L87.1450903,24.3567977 L87.1450903,19.8728009 L90.7671667,19.8728011 L90.7671666,17.4399942 L80.0915733,17.4161432 L80.0915733,19.8728011 L84.6668275,19.8728009 L84.6668275,32.7046639 C83.8566263,32.9193233 83.8327968,32.9431743 83.2132311,33.0862806 L83.2132311,25.5970521 C83.2132311,24.3329466 83.2132311,25.6209034 83.2132311,22.8541816 L80.8779451,22.8541815 C80.8779451,22.8541815 80.8779451,24.2136914 80.8779451,25.6209031 L80.8779451,33.5633015 C80.6200756,33.6063188 79.5354484,33.8304781 79.5354484,33.8304781 L80.0915733,36.6492381 L81.1060258,36.2697896 C81.1060258,36.2697896 87.7778303,34.3602397 90.1952598,33.4678974 L89.5518647,31.0862526 C89.5518647,31.0862526 87.7169971,31.7744731 87.1450903,31.9652814 L87.1450903,26.7896044 L87.7884854,26.7896044 C88.5271983,26.7896044 88.7893223,26.7896044 89.2182524,26.8373065 C89.7186708,27.3143274 90.4874963,28.1135534 90.4874963,28.1135534 C90.4874963,28.1135534 91.1960967,27.5051358 91.7918329,26.5272429 C92.2445924,28.2206672 92.9356465,29.8186873 93.864995,31.2974521 C93.3407471,31.8937283 92.5305458,32.6569618 91.744174,33.2293869 C90.5050426,34.1834287 89.5756942,34.7558542 87.7884855,35.4713856 C87.7884855,35.4713856 88.4929009,37.3419676 88.7906741,37.9827602 C91.5787197,36.4801442 93.6267005,35.2567258 95.3662503,33.4201953 C95.8904982,34.0880246 96.4147461,34.6365986 97.3202651,35.4713852 C98.4402493,36.4969802 99.1074738,36.9978522 100.537241,37.8326388 C100.713703,37.3678431 101.165802,36.5488443 101.545057,35.9047928 C101.733996,35.5839356 101.915756,35.2661706 102.014667,35.1374706 C99.965334,34.1834287 98.4640787,33.0385785 96.9866528,31.3451542 C98.1781253,29.4609216 99.012156,27.2666253 99.4649156,24.7145634 C99.6078923,23.9751809 99.6078923,23.9751809 99.7985279,22.0193951 C100.823194,22.0432462 101.633396,22.0193952 101.633396,22.0193952 L101.633396,19.673763 Z M97.2726062,22.0193951 C97.2011179,23.3550537 97.1296295,23.9274788 96.9151645,24.8338186 C96.5338933,26.4318387 95.9381571,28.0775609 95.3662503,29.174709 C94.2939251,27.3620295 93.7220183,25.9071157 93.2930882,23.7605215 C93.5313827,23.2119474 93.6267005,22.997288 93.9603128,22.0193951 L97.2726062,22.0193951 Z M122.341187,21.3754169 C123.145729,21.3754169 125.200721,21.3754171 125.200721,21.3754171 L125.200721,18.7279507 L113.691097,18.871057 C113.905562,18.3224829 114.496378,16.0327147 114.496378,16.0327147 L111.680171,16.0327147 C111.561024,16.8913524 111.308152,17.5831005 110.783904,18.871057 L106.685239,18.871057 C105.398448,18.871057 103.825705,18.871057 103.825705,18.871057 L103.825705,21.3754167 C103.825705,21.3754167 105.493766,21.3754169 106.685239,21.3754169 L109.592432,21.3754169 C108.067347,24.1421382 103.14029,28.6019454 103.14029,28.6019454 C103.14029,28.6019454 104.637536,30.2421045 104.945689,30.8442823 C105.684402,30.2480061 105.851208,30.1048998 106.756727,29.2224111 L106.756727,35.1374706 C106.756727,36.377725 106.756727,37.9041913 106.756727,37.9041913 L109.401796,37.9041913 C109.401796,37.9041913 109.401796,36.4254271 109.401796,35.1374706 L109.401796,26.3364345 C110.688586,24.7384144 111.617935,23.2357985 112.523454,21.3754169 L122.341187,21.3754169 Z M118.576134,28.9600496 L121.554815,28.9600496 C122.65097,28.9600496 124.104566,28.9600498 124.104566,28.9600498 L124.104566,26.5272428 C124.104566,26.5272428 122.746288,26.5272429 121.554815,26.5272429 L118.576134,26.5272429 L118.576134,25.048478 C118.576134,24.2818866 118.576134,23.5759633 118.576134,23.1060301 C118.576134,22.7425615 118.576134,22.5202671 118.576134,22.5202671 L115.811918,22.5202671 C115.811918,22.5202671 115.930376,22.5128872 115.931065,22.5202671 C115.942828,22.6463024 115.931065,23.8291265 115.931065,25.0007759 L115.931065,26.5272429 L113.428973,26.5272429 C112.213671,26.5272429 110.879222,26.5272428 110.879222,26.5272428 L110.879222,28.9600498 C110.879222,28.9600498 111.396488,28.9600497 112.026291,28.9600497 C112.49508,28.9600496 113.02622,28.9600496 113.452802,28.9600496 L115.931065,28.9600496 L115.931065,34.5650455 L112.785578,34.5650455 C111.641764,34.5650455 110.140509,34.5650453 110.140509,34.5650453 L110.140509,37.0217027 C110.140509,37.0217027 111.689423,37.0217033 112.809407,37.0217033 L122.341187,37.0217033 C123.389683,37.0217033 125.010085,37.0217031 125.010085,37.0217031 L125.010085,34.5650458 C125.010085,34.5650458 123.627977,34.5650455 122.365016,34.5650455 L118.576134,34.5650455 L118.576134,28.9600496 Z M129.023796,27.8309432 C128.817426,28.0743854 127.631325,29.0190844 127.631325,29.0190844 L127.988766,31.5121116 C128.417697,31.4405584 128.417697,31.4405584 128.822797,31.3928563 C129.537681,31.3213032 129.656828,31.2974521 130.943618,31.1304948 C133.684005,30.7727291 133.684005,30.7727291 135.542702,30.4626655 L135.345454,28.0433598 C135.345454,28.0433598 133.564858,28.4114755 132.754656,28.5068797 C132.492532,28.5307308 132.039773,28.6022839 131.348719,28.673837 C132.135091,27.8629015 132.95328,26.5617042 133.882629,25.3691518 C134.688938,24.344832 135.498529,23.1697026 135.814822,22.5865292 L133.882629,21.2132874 C133.882629,21.2132874 133.04061,22.4248629 132.492532,23.3550537 C131.634672,23.3789048 131.134254,23.4027558 130.538518,23.4266069 C130.752983,23.0926922 132.18275,20.5167792 132.492532,19.8728009 C133.374222,18.0124193 133.38221,17.8466676 133.882629,16.98803 L130.919789,16.98803 C130.276394,18.9915178 130.490859,18.1316746 129.895122,19.5150353 C129.418533,20.6121834 129.299386,20.8506938 128.441526,22.3771608 C128.278331,22.5862392 127.196956,24.2500704 127.196956,24.2500704 L127.631325,25.8594136 C128.441526,25.7878604 130.395541,25.6447542 130.919789,25.6209031 C130.324052,26.3602856 129.023796,27.8309432 129.023796,27.8309432 Z M147.332628,18.294504 L144.450865,16 L143.250137,17.5425329 L146.007145,19.8534204 L147.332628,18.294504 Z M135.518872,32.3425616 C132.228523,32.9980348 127.55487,33.9074125 127.55487,33.9074125 L128.018385,36.453232 C128.018385,36.453232 128.935955,36.272751 129.58534,36.134878 C133.684005,35.3239424 134.856037,34.9239306 135.952192,34.613867 L135.518872,32.3425616 Z M146.00383,28.0775609 C145.551071,28.8884965 144.836187,29.7471341 143.83535,30.6296228 C143.525567,29.7709852 143.215785,28.6022839 143.096637,27.8151994 L146.837861,27.0042638 C147.338279,26.9088596 147.886357,26.8134554 148.744217,26.6703492 L148.281368,24.3567974 C148.18605,24.3806485 142.643878,25.573201 142.643878,25.573201 C142.54856,24.4999039 142.500901,24.1421382 142.453242,23.2835006 L146.00383,22.7248097 C146.347273,22.6866148 147.846568,22.4577404 147.846568,22.4577404 L147.47704,20.264719 L142.286436,20.9699491 L142.286436,16.1997398 L139.784344,16.1997398 L139.784344,21.3740378 L138.426065,21.6377784 C138.140112,21.6854805 138.092453,21.6854805 137.8065,21.7093315 C136.996298,21.8285867 136.615027,21.8762888 136.329074,21.8762888 L136.615027,24.3567977 C136.829492,24.3090956 136.877151,24.2852445 137.186934,24.2136914 C137.877988,24.0467341 137.973306,24.022883 138.688189,23.9036278 L140.046468,23.6889684 C140.094127,24.1421382 140.094127,24.1421382 140.094127,24.2136914 C140.189444,25.4062437 140.189444,25.573201 140.260933,26.1217751 L138.2116,26.598796 C137.544376,26.7657533 137.091616,26.8134554 136.233756,26.9088596 L136.734174,29.4847726 C137.401399,29.2224111 137.639693,29.150858 138.569042,28.9361986 L140.689863,28.4114755 C140.928157,29.7471341 141.26177,30.9635375 141.762188,32.2276429 C139.998809,33.6110036 137.472887,34.851258 135.137601,35.4952363 C135.232919,35.6383426 135.256748,35.6860447 135.352066,35.853002 C135.947803,36.878597 136.209926,37.40332 136.400562,37.8803409 C140.38008,36.0438104 141.380917,35.4952363 142.834513,34.2788329 C143.549397,35.3998321 144.266457,36.1856646 144.623898,36.5195793 C145.04772,36.9313084 145.861463,37.4533335 146.758162,37.7230365 C147.575642,37.968913 148.414136,38 148.414136,38 L149,35.4952358 C149,35.4952358 147.735182,35.277517 146.83786,34.806167 C146.106356,34.4219183 145.215601,33.348782 144.883846,32.8239191 C145.717877,32.0129835 146.909349,30.8442823 147.576574,30.1287509 C147.862527,29.8186873 148.029333,29.6517299 148.148481,29.5563258 L146.00383,28.0775609 Z" id="家政在线-14" fill="#FFFFFF" sketch:type="MSShapeGroup"></path>
            <g id="Group-2" sketch:type="MSLayerGroup" transform="translate(13.000000, 14.000000)">
                <path d="M13,27 C20.1797017,27 26,21.2855254 26,14.2363636 C26,7.18720192 20.1797017,1.47272727 13,1.47272727 C5.82029825,1.47272727 0,7.18720192 0,14.2363636 C0,21.2855254 5.82029825,27 13,27 Z M13,23.0727273 C17.9705627,23.0727273 22,19.1165525 22,14.2363636 C22,9.35617476 17.9705627,5.4 13,5.4 C8.02943725,5.4 4,9.35617476 4,14.2363636 C4,19.1165525 8.02943725,23.0727273 13,23.0727273 Z M13,19.1454545 C15.7614237,19.1454545 18,16.9475797 18,14.2363636 C18,11.5251476 15.7614237,9.32727273 13,9.32727273 C10.2385763,9.32727273 8,11.5251476 8,14.2363636 C8,16.9475797 10.2385763,19.1454545 13,19.1454545 Z" id="Oval-40" stroke="#FFFFFF" stroke-width="1.96608" sketch:type="MSShapeGroup"></path>
                <rect id="Path-2" fill="#DA453D" sketch:type="MSShapeGroup" x="13" y="0" width="14" height="14.2363636"></rect>
                <rect id="Rectangle-41" fill="#FFFFFF" sketch:type="MSShapeGroup" x="17" y="0.490909091" width="2" height="14.2363636"></rect>
                <rect id="Rectangle-42" fill="#FFFFFF" sketch:type="MSShapeGroup" x="21" y="0.490909091" width="2" height="14.2363636"></rect>
                <rect id="Rectangle-43" fill="#FFFFFF" sketch:type="MSShapeGroup" x="25" y="0.490909091" width="2" height="14.2363636"></rect>
            </g>
        </g>
    </g>
</svg>