<?xml version="1.0" encoding="UTF-8" standalone="no"?>
<svg width="20px" height="20px" viewBox="0 0 20 20" version="1.1" xmlns="http://www.w3.org/2000/svg" xmlns:xlink="http://www.w3.org/1999/xlink" xmlns:sketch="http://www.bohemiancoding.com/sketch/ns">
    <!-- Generator: Sketch Beta 3.3 (11920) - http://www.bohemiancoding.com/sketch -->
    <title>setting</title>
    <desc>Created with Sketch Beta.</desc>
    <defs></defs>
    <g id="Page-1" stroke="none" stroke-width="1" fill="none" fill-rule="evenodd" sketch:type="MSPage">
        <g id="Artboard-1" sketch:type="MSArtboardGroup" fill="#FFFFFF">
            <g id="settings" sketch:type="MSLayerGroup">
                <path d="M17.1392305,11 C17.1392305,10.7 17.2392305,10.4 17.2392305,10 C17.2392305,9.6 17.2392305,9.3 17.1392305,9 L19.2392305,7.3 C19.4392305,7.1 19.4392305,6.9 19.3392305,6.7 L17.3392305,3.2 C17.2392305,3.1 17.0392305,3 16.7392305,3.1 L14.2392305,4.1 C13.7392305,3.7 13.1392305,3.4 12.5392305,3.1 L12.1392305,0.5 C12.2392305,0.2 11.9392305,0 11.7392305,0 L7.73923048,0 C7.53923048,0 7.23923048,0.2 7.23923048,0.4 L6.83923048,3.1 C6.23923048,3.3 5.73923048,3.7 5.13923048,4.1 L2.73923048,3.1 C2.43923048,3 2.23923048,3.1 2.03923048,3.3 L0.0392304845,6.8 C-0.0607695155,6.9 0.0392304845,7.2 0.239230485,7.4 L2.33923048,9 C2.33923048,9.3 2.23923048,9.6 2.23923048,10 C2.23923048,10.4 2.23923048,10.7 2.33923048,11 L0.239230485,12.7 C0.0392304845,12.9 0.0392304845,13.1 0.139230485,13.3 L2.13923048,16.8 C2.23923048,16.9 2.43923048,17 2.73923048,16.9 L5.23923048,15.9 C5.73923048,16.3 6.33923048,16.6 6.93923048,16.9 L7.33923048,19.5 C7.33923048,19.7 7.53923048,19.9 7.83923048,19.9 L11.8392305,19.9 C12.0392305,19.9 12.3392305,19.7 12.3392305,19.5 L12.7392305,16.9 C13.3392305,16.6 13.9392305,16.3 14.4392305,15.9 L16.9392305,16.9 C17.1392305,17 17.4392305,16.9 17.5392305,16.7 L19.5392305,13.2 C19.6392305,13 19.6392305,12.7 19.4392305,12.6 L17.1392305,11 L17.1392305,11 Z M9.73923048,13.5 C7.83923048,13.5 6.23923048,11.9 6.23923048,10 C6.23923048,8.1 7.83923048,6.5 9.73923048,6.5 C11.6392305,6.5 13.2392305,8.1 13.2392305,10 C13.2392305,11.9 11.6392305,13.5 9.73923048,13.5 L9.73923048,13.5 Z" id="setting" sketch:type="MSShapeGroup"></path>
            </g>
        </g>
    </g>
</svg>